<svg width="30" height="30" viewBox="0 0 30 30" fill="none" xmlns="http://www.w3.org/2000/svg">
<path fill-rule="evenodd" clip-rule="evenodd" d="M7.5 0H22.5C26.7 0 30 3.3 30 7.5V22.5C30 26.7 26.7 30 22.5 30H7.5C3.3 30 0 26.7 0 22.5V7.5C0 3.3 3.3 0 7.5 0ZM22.5 27C25.05 27 27 25.05 27 22.5V7.5C27 4.95 25.05 3 22.5 3H7.5C4.95 3 3 4.95 3 7.5V22.5C3 25.05 4.95 27 7.5 27H22.5Z" fill="white"/>
<path fill-rule="evenodd" clip-rule="evenodd" d="M7.5 15C7.5 10.8 10.8 7.5 15 7.5C19.2 7.5 22.5 10.8 22.5 15C22.5 19.2 19.2 22.5 15 22.5C10.8 22.5 7.5 19.2 7.5 15ZM10.5 15C10.5 17.55 12.45 19.5 15 19.5C17.55 19.5 19.5 17.55 19.5 15C19.5 12.45 17.55 10.5 15 10.5C12.45 10.5 10.5 12.45 10.5 15Z" fill="white"/>
<circle cx="22.5" cy="7.5" r="1.5" fill="white"/>
</svg>
