<svg width="30" height="30" viewBox="0 0 30 30" fill="none" xmlns="http://www.w3.org/2000/svg">
<path fill-rule="evenodd" clip-rule="evenodd" d="M3 0H27C28.65 0 30 1.35 30 3V27C30 28.65 28.65 30 27 30H3C1.35 30 0 28.65 0 27V3C0 1.35 1.35 0 3 0ZM9 25.5V12H4.5V25.5H9ZM6.75 9.45C5.25 9.45 4.05 8.25 4.05 6.75C4.05 5.25 5.25 4.05 6.75 4.05C8.25 4.05 9.45 5.25 9.45 6.75C9.45 8.25 8.25 9.45 6.75 9.45ZM21 25.5H25.5V16.95C25.5 14.1 23.1 11.7 20.25 11.7C18.9 11.7 17.25 12.6 16.5 13.8V12H12V25.5H16.5V17.55C16.5 16.3501 17.55 15.3 18.75 15.3C19.95 15.3 21 16.3501 21 17.55V25.5Z" fill="white"/>
</svg>
