  <svg viewBox="0 0 30 30" xmlns="http://www.w3.org/2000/svg"><g fill="none" stroke="#D6FF00"><g stroke-miterlimit="13.33"><path d="m7.46 15.36c-1.05-1.5-1.67-3.32-1.67-5.29 0-5.08 4.12-9.2 9.21-9.2s9.21 4.12 9.21 9.21c0 1.97-.62 3.79-1.67 5.29"></path><path d="m15 14.26c-2.31 0-4.19-1.88-4.19-4.19s1.88-4.19 4.19-4.19 4.19 1.88 4.19 4.19-1.88 4.19-4.19 4.19z"></path><path d="m7.15 14.89 7.59 11.78c.12.18.39.18.51 0l7.59-11.78"></path></g><path d="m22.75 23.03c2.39.64 3.9 1.57 3.9 2.61 0 1.93-5.22 3.5-11.66 3.5s-11.66-1.57-11.66-3.5c0-1.04 1.51-1.97 3.9-2.61" stroke-linecap="round" stroke-linejoin="round"></path></g></svg>