<svg id="Layer_1" data-name="Layer 1" xmlns="http://www.w3.org/2000/svg" viewBox="0 0 351.38 70.87">
  <defs>
    <style>
      .cls-1 {
        fill: #ffffff;
      }

      .cls-1, .cls-2 {
        stroke-width: 0px;
      }

      .cls-2 {
        fill: #d6ff00;
      }
    </style>
  </defs>
  <path class="cls-1" d="m30.67,70.4c-6.06,0-11.4-1.26-16.01-3.79-4.61-2.52-8.2-6.12-10.79-10.79-2.58-4.67-3.88-10.18-3.88-16.54s1.28-11.59,3.83-16.23c2.55-4.64,6.26-8.25,11.1-10.84,4.85-2.58,10.72-3.88,17.61-3.88,3.15,0,6.08.36,8.78,1.07,2.7.71,5.28,1.76,7.72,3.12l.35,12.49h-.89l-4.99-9.28c-.77-1.48-1.49-2.55-2.14-3.21-.65-.65-1.49-1.16-2.5-1.51-.95-.3-1.83-.52-2.63-.67-.8-.15-1.86-.22-3.16-.22-3.69,0-6.94.98-9.76,2.94-2.83,1.96-5.01,5.08-6.56,9.36-1.54,4.28-2.32,9.9-2.32,16.85s.73,12.52,2.18,16.85c1.46,4.34,3.52,7.51,6.2,9.5,2.67,1.99,5.77,2.99,9.27,2.99.54,0,1.06-.05,1.56-.13.5-.09.99-.19,1.47-.31,1.13-.18,1.87-.65,2.23-1.42.36-.77.54-1.69.54-2.77v-17.66c0-2.32-1.19-3.74-3.57-4.28l-4.1-1.07v-.89h25.15v.89l-1.25.35c-2.26.71-3.39,2.2-3.39,4.46v19.35c-3.09,1.72-6.23,3.03-9.41,3.93-3.18.89-6.73,1.34-10.65,1.34"/>
  <path class="cls-1" d="m58.49,68.8v-.89l1.34-.36c1.19-.36,2.01-.89,2.45-1.61.45-.71.67-1.64.67-2.77v-27.91c0-1.31-.22-2.27-.67-2.9-.45-.63-1.26-1.06-2.45-1.29l-1.34-.36v-.89l15.34-5.17.89.89.8,7.67v.71c.83-1.66,1.92-3.2,3.26-4.59,1.34-1.4,2.82-2.54,4.46-3.43,1.63-.89,3.25-1.34,4.86-1.34,2.26,0,3.98.63,5.17,1.87,1.19,1.25,1.78,2.82,1.78,4.72,0,2.02-.58,3.58-1.74,4.68-1.16,1.1-2.54,1.65-4.14,1.65-2.5,0-4.7-1.25-6.6-3.74l-.18-.18c-.6-.83-1.28-1.29-2.05-1.38-.77-.09-1.49.28-2.14,1.12-.6.53-1.09,1.18-1.47,1.92-.39.75-.76,1.59-1.11,2.54v24.88c0,2.38,1.04,3.86,3.12,4.46l2.85.8v.89h-23.1Z"/>
  <path class="cls-1" d="m114.4,64.69c1.19,0,2.3-.28,3.35-.85,1.04-.56,2.27-1.44,3.7-2.63v-14.98c-.6.12-1.19.24-1.78.36-.6.12-1.28.24-2.05.36-2.73.71-4.92,1.92-6.55,3.61-1.64,1.69-2.45,3.97-2.45,6.82,0,2.44.56,4.27,1.69,5.48,1.13,1.22,2.5,1.83,4.1,1.83m-5.44,5.44c-3.45,0-6.35-.98-8.7-2.94-2.35-1.96-3.52-4.79-3.52-8.47,0-2.79,1.43-5.36,4.28-7.71,2.85-2.35,7.34-4.12,13.46-5.3.95-.18,2.02-.37,3.21-.58s2.44-.43,3.74-.67v-7.05c0-4.04-.49-6.88-1.47-8.52-.98-1.63-2.51-2.45-4.59-2.45-1.43,0-2.56.46-3.39,1.38-.83.92-1.37,2.51-1.6,4.77l-.18.98c-.12,2.56-.75,4.43-1.87,5.62s-2.53,1.78-4.19,1.78c-1.54,0-2.82-.48-3.83-1.42-1.01-.95-1.52-2.23-1.52-3.84,0-2.44.85-4.49,2.54-6.15,1.69-1.66,3.94-2.91,6.73-3.74,2.79-.83,5.83-1.25,9.1-1.25,5.29,0,9.38,1.29,12.26,3.88s4.32,6.79,4.32,12.62v19.71c0,2.68,1.25,4.01,3.74,4.01h1.96l.8.71c-1.13,1.42-2.36,2.53-3.7,3.3-1.34.77-3.23,1.16-5.67,1.16-2.62,0-4.68-.61-6.2-1.83-1.52-1.22-2.51-2.84-2.99-4.86-1.78,1.91-3.61,3.52-5.48,4.86-1.87,1.34-4.29,2-7.27,2"/>
  <path class="cls-1" d="m141.96,68.8v-.89l1.25-.36c2.08-.6,3.12-2.05,3.12-4.37v-27.91c0-1.31-.21-2.27-.63-2.9-.41-.63-1.22-1.06-2.41-1.29l-1.34-.36v-.89l15.25-5.17.89.89.71,5.35c2.08-1.84,4.43-3.36,7.04-4.55,2.62-1.19,5.2-1.79,7.76-1.79,3.92,0,6.94,1.07,9.05,3.21,2.11,2.14,3.17,5.41,3.17,9.81v25.68c0,2.32,1.13,3.78,3.39,4.37l.8.27v.89h-21.04v-.89l1.16-.36c2.08-.65,3.12-2.11,3.12-4.37v-28.45c0-3.8-1.9-5.71-5.71-5.71-2.62,0-5.47,1.31-8.56,3.93v30.32c0,2.32,1.04,3.78,3.12,4.37l.8.27v.89h-20.96Z"/>
  <path class="cls-1" d="m193.68,68.8v-.89l1.25-.36c1.19-.36,2-.89,2.45-1.61.45-.71.67-1.66.67-2.85v-27.91c0-1.25-.23-2.19-.67-2.81-.45-.63-1.26-1.06-2.45-1.29l-1.25-.27v-.89l16.32-5.26.89.89-.27,12.66v24.97c0,1.19.22,2.14.67,2.85.45.71,1.23,1.25,2.36,1.61l.89.27v.89h-20.87Z"/>
  <path class="cls-1" d="m235.41,70.13c-3.81,0-6.76-.95-8.87-2.85-2.11-1.9-3.16-4.93-3.16-9.1v-30.5h-6.15v-.89l2.14-.36c1.84-.41,3.43-1.01,4.77-1.78s2.66-1.81,3.97-3.12l7.31-8.12h.89l-.27,12.49h9.99v1.78h-10.08v32.1c0,2.08.46,3.66,1.38,4.72.92,1.07,2.1,1.61,3.52,1.61,1.25,0,2.35-.31,3.3-.93.95-.63,1.9-1.47,2.85-2.54l.89.89c-1.19,2.02-2.82,3.63-4.9,4.82-2.08,1.19-4.61,1.78-7.58,1.78"/>
  <path class="cls-1" d="m272.51,26.35c-1.72,0-3.2.52-4.41,1.56s-2.17,2.88-2.85,5.53c-.68,2.65-1.06,6.38-1.11,11.19h15.25c.6-6.48.36-11.15-.71-14-1.07-2.85-3.12-4.28-6.15-4.28m.27-1.78c3.86,0,7.16.79,9.9,2.36,2.73,1.57,4.83,3.72,6.29,6.42,1.46,2.7,2.19,5.78,2.19,9.23,0,.65-.03,1.32-.09,2-.06.68-.18,1.29-.35,1.83h-26.58c.06,6.42,1.2,11.04,3.43,13.87,2.23,2.82,5.54,4.24,9.94,4.24,2.97,0,5.38-.48,7.22-1.42,1.84-.95,3.57-2.35,5.17-4.19l.89.8c-1.84,3.27-4.3,5.83-7.36,7.67-3.06,1.84-6.73,2.77-11.01,2.77s-7.97-.91-11.23-2.72c-3.27-1.81-5.83-4.42-7.67-7.8-1.84-3.39-2.77-7.43-2.77-12.13s1.07-9.02,3.21-12.44c2.14-3.42,4.89-6.02,8.25-7.8,3.36-1.78,6.88-2.67,10.57-2.67"/>
  <path class="cls-1" d="m204.2,19.93c-2.02,0-3.73-.64-5.13-1.92-1.4-1.28-2.1-2.9-2.1-4.86s.7-3.66,2.1-4.9c1.4-1.25,3.11-1.87,5.13-1.87s3.71.63,5.08,1.87c1.37,1.25,2.05,2.88,2.05,4.9s-.68,3.58-2.05,4.86c-1.37,1.28-3.06,1.92-5.08,1.92"/>
  <rect class="cls-2" x="304.35" width="47.03" height="18.64"/>
  <path class="cls-2" d="m304.35,63.46c0-4.09,3.31-7.4,7.41-7.4s7.4,3.31,7.4,7.4-3.31,7.41-7.4,7.41-7.41-3.31-7.41-7.41"/>
  <path class="cls-2" d="m315.34,44.79c1.67.71,3.29,1.59,4.8,2.61,1.51,1.01,2.92,2.18,4.21,3.47s2.45,2.7,3.47,4.2c1.02,1.51,1.9,3.13,2.61,4.8,1.47,3.47,2.21,7.17,2.22,10.99h18.64c0-25.91-21.02-46.92-46.93-46.94v18.64c3.82,0,7.52.75,10.99,2.22"/>
</svg>