<svg id="Layer_1" data-name="Layer 1" xmlns="http://www.w3.org/2000/svg" viewBox="0 0 376.93 170.08">
  <defs>
    <style>
      .cls-1 {
        fill: #fff;
        stroke-width: 0px;
      }
       .cls-2 {
        fill: #d6ff00;
        stroke-width: 0px;
      }
    </style>
  </defs>
  <path class="cls-2" d="m266.4,3.54h106.98v40.27h-106.98V3.54Zm-3.54,43.81h114.07V0h-114.07v47.35Z"/>
  <path class="cls-2" d="m332.87,166.54h40.28c-.96-58.42-48.33-105.78-106.74-106.75v40.27c8.59.22,16.91,2.01,24.75,5.33,4.04,1.71,7.94,3.83,11.59,6.29,3.63,2.45,7.04,5.27,10.14,8.37,3.1,3.1,5.92,6.52,8.37,10.14,2.47,3.65,4.58,7.55,6.29,11.59,3.32,7.84,5.11,16.16,5.33,24.76m43.83,3.54h-47.35v-1.77c0-8.75-1.71-17.21-5.07-25.15-1.62-3.83-3.63-7.52-5.96-10.98-2.32-3.44-4.99-6.67-7.94-9.62-2.94-2.94-6.18-5.61-9.62-7.93-3.46-2.34-7.16-4.35-10.99-5.96-7.94-3.36-16.4-5.07-25.15-5.07h-1.77v-47.35h1.77c61.77.03,112.04,50.31,112.07,112.08v1.77Z"/>
  <g>
    <path class="cls-1" d="m31.24,168.69c-6.18,0-11.61-1.29-16.3-3.86-4.69-2.57-8.35-6.23-10.99-10.99-2.63-4.75-3.95-10.36-3.95-16.84s1.3-11.8,3.91-16.53c2.6-4.72,6.37-8.4,11.3-11.03,4.93-2.63,10.91-3.95,17.93-3.95,3.21,0,6.19.36,8.94,1.09,2.75.72,5.37,1.79,7.85,3.18l.36,12.71h-.91l-5.08-9.44c-.79-1.51-1.51-2.6-2.18-3.27-.67-.67-1.51-1.18-2.54-1.54-.97-.3-1.86-.53-2.68-.68-.82-.15-1.89-.23-3.22-.23-3.75,0-7.07,1-9.94,3-2.88,2-5.1,5.18-6.67,9.53-1.58,4.36-2.36,10.08-2.36,17.16s.74,12.74,2.22,17.16c1.48,4.42,3.59,7.64,6.31,9.67s5.87,3.04,9.44,3.04c.54,0,1.07-.05,1.59-.14.51-.09,1.01-.19,1.5-.32,1.15-.18,1.91-.66,2.27-1.45.36-.79.54-1.73.54-2.82v-17.98c0-2.36-1.21-3.81-3.63-4.36l-4.18-1.09v-.91h25.61v.91l-1.27.36c-2.3.73-3.45,2.24-3.45,4.54v19.7c-3.15,1.76-6.34,3.09-9.58,4-3.24.91-6.86,1.36-10.85,1.36"/>
    <path class="cls-1" d="m59.57,167.06v-.91l1.36-.36c1.21-.36,2.04-.91,2.5-1.64.45-.73.68-1.66.68-2.81v-28.42c0-1.33-.23-2.32-.68-2.95-.46-.64-1.29-1.07-2.5-1.32l-1.36-.36v-.91l15.62-5.27.91.91.82,7.81v.73c.85-1.69,1.95-3.25,3.31-4.68,1.36-1.42,2.87-2.59,4.54-3.5,1.67-.91,3.32-1.36,4.95-1.36,2.3,0,4.06.64,5.27,1.91,1.21,1.27,1.82,2.87,1.82,4.81,0,2.06-.59,3.65-1.77,4.77-1.18,1.12-2.59,1.68-4.22,1.68-2.54,0-4.78-1.27-6.72-3.81l-.18-.18c-.61-.85-1.3-1.32-2.09-1.41-.79-.09-1.51.29-2.18,1.14-.61.54-1.11,1.2-1.5,1.95-.39.76-.77,1.62-1.13,2.59v25.33c0,2.42,1.06,3.94,3.18,4.54l2.9.82v.91h-23.52Z"/>
    <path class="cls-1" d="m116.5,162.88c1.21,0,2.34-.29,3.4-.86,1.06-.57,2.32-1.47,3.77-2.68v-15.26c-.61.12-1.21.24-1.82.36-.61.12-1.3.24-2.09.36-2.79.73-5.01,1.95-6.68,3.68-1.67,1.72-2.5,4.04-2.5,6.95,0,2.48.57,4.34,1.72,5.58,1.15,1.24,2.54,1.86,4.18,1.86m-5.54,5.54c-3.51,0-6.46-1-8.85-3-2.39-2-3.59-4.87-3.59-8.63,0-2.85,1.45-5.46,4.36-7.86,2.91-2.39,7.48-4.19,13.71-5.4.97-.18,2.06-.38,3.27-.59,1.21-.21,2.48-.44,3.82-.68v-7.17c0-4.12-.5-7.01-1.5-8.67-1-1.66-2.56-2.5-4.68-2.5-1.45,0-2.6.47-3.45,1.41-.85.94-1.39,2.56-1.63,4.86l-.18,1c-.12,2.6-.76,4.51-1.91,5.72-1.15,1.21-2.57,1.82-4.27,1.82-1.58,0-2.88-.48-3.91-1.45-1.03-.97-1.54-2.27-1.54-3.9,0-2.48.86-4.57,2.59-6.26,1.73-1.69,4.01-2.96,6.86-3.81,2.85-.85,5.93-1.27,9.26-1.27,5.39,0,9.55,1.32,12.49,3.95,2.93,2.63,4.4,6.92,4.4,12.85v20.07c0,2.72,1.27,4.09,3.81,4.09h2l.82.73c-1.15,1.45-2.4,2.58-3.77,3.36-1.36.79-3.29,1.18-5.77,1.18-2.66,0-4.77-.62-6.31-1.86-1.54-1.24-2.56-2.89-3.04-4.95-1.82,1.94-3.68,3.59-5.58,4.95-1.91,1.36-4.37,2.04-7.4,2.04"/>
    <path class="cls-1" d="m144.56,167.06v-.91l1.27-.36c2.12-.61,3.18-2.09,3.18-4.45v-28.42c0-1.33-.21-2.32-.64-2.95-.42-.64-1.24-1.07-2.45-1.32l-1.36-.36v-.91l15.53-5.27.91.91.73,5.45c2.12-1.88,4.51-3.42,7.17-4.63s5.3-1.82,7.9-1.82c4,0,7.07,1.09,9.22,3.27,2.15,2.18,3.22,5.51,3.22,9.99v26.15c0,2.36,1.15,3.84,3.45,4.45l.82.27v.91h-21.43v-.91l1.18-.36c2.12-.67,3.18-2.15,3.18-4.45v-28.97c0-3.87-1.94-5.81-5.81-5.81-2.66,0-5.57,1.33-8.72,3.99v30.88c0,2.36,1.06,3.84,3.18,4.45l.82.27v.91h-21.34Z"/>
    <path class="cls-1" d="m197.22,167.06v-.91l1.27-.36c1.21-.36,2.04-.91,2.5-1.64.45-.73.68-1.69.68-2.9v-28.42c0-1.27-.23-2.22-.68-2.86-.46-.64-1.29-1.07-2.5-1.32l-1.27-.27v-.91l16.62-5.36.91.91-.27,12.89v25.43c0,1.21.23,2.18.68,2.9.45.73,1.26,1.27,2.41,1.64l.91.27v.91h-21.25Z"/>
    <path class="cls-1" d="m239.72,168.42c-3.87,0-6.89-.97-9.04-2.91-2.15-1.93-3.22-5.02-3.22-9.26v-31.06h-6.27v-.91l2.18-.36c1.88-.42,3.5-1.03,4.86-1.82,1.36-.79,2.71-1.85,4.04-3.18l7.45-8.26h.91l-.27,12.71h10.17v1.82h-10.26v32.69c0,2.12.47,3.72,1.41,4.81.94,1.09,2.14,1.63,3.59,1.63,1.27,0,2.39-.32,3.36-.95.97-.64,1.94-1.5,2.91-2.59l.91.91c-1.21,2.06-2.88,3.69-5,4.9-2.12,1.21-4.69,1.82-7.72,1.82"/>
    <path class="cls-1" d="m277.49,123.84c-1.75,0-3.25.53-4.49,1.59-1.24,1.06-2.21,2.94-2.91,5.63-.7,2.69-1.07,6.49-1.14,11.4h15.53c.61-6.6.36-11.35-.73-14.26-1.09-2.91-3.18-4.36-6.27-4.36m.27-1.82c3.93,0,7.29.8,10.08,2.41,2.78,1.6,4.92,3.78,6.4,6.54,1.48,2.75,2.23,5.89,2.23,9.4,0,.67-.03,1.35-.09,2.04-.06.7-.18,1.32-.36,1.86h-27.06c.06,6.54,1.23,11.25,3.5,14.12,2.27,2.88,5.64,4.31,10.12,4.31,3.03,0,5.48-.48,7.35-1.45,1.88-.97,3.63-2.39,5.27-4.27l.91.82c-1.88,3.33-4.37,5.93-7.49,7.81-3.12,1.87-6.86,2.81-11.21,2.81s-8.12-.92-11.44-2.77c-3.33-1.85-5.93-4.5-7.81-7.94-1.88-3.45-2.82-7.57-2.82-12.35s1.09-9.18,3.27-12.67c2.18-3.48,4.98-6.13,8.4-7.94,3.42-1.82,7-2.72,10.76-2.72"/>
    <path class="cls-1" d="m207.94,117.3c-2.06,0-3.8-.65-5.22-1.95-1.42-1.3-2.13-2.95-2.13-4.95s.71-3.72,2.13-5c1.42-1.27,3.16-1.91,5.22-1.91s3.78.64,5.18,1.91c1.39,1.27,2.09,2.94,2.09,5s-.7,3.65-2.09,4.95c-1.39,1.3-3.12,1.95-5.18,1.95"/>
  </g>
</svg>